<svg xmlns="http://www.w3.org/2000/svg" width="500" height="500" viewBox="0 0 500 500">
<defs>
<mask id="holes">
<rect width="500" height="500" fill="white"/>
<path fill="black" d="M275.673 168.609C277.88 169.629 280.976 170.963 283.056 172.07C284.458 172.608 285.441 173.005 286.801 173.666C287.603 176.292 288.081 178.6 289.124 181.187C292.957 190.692 299.285 196.965 307.294 202.957L307.904 203.537C309.641 204.032 310.139 204.066 311.815 203.423C312.125 205.662 312.018 209.939 312.018 212.37L311.994 229.031C310.945 229.22 309.085 229.188 308.038 228.992C301.06 229.164 293.689 228.455 286.84 229.432C285.887 229.568 285.446 232.667 288.003 232.707C292.702 232.78 297.407 232.753 302.105 232.754L330.301 232.755C329.783 247.466 324.608 261.55 316.633 273.802C313.079 269.484 308.693 265.917 304.544 262.222C295.554 254.219 285.753 248.279 275.591 241.894C275.803 239.09 275.718 235.158 275.721 232.305L275.727 216.485L275.673 168.609Z"/>
<path fill="black" d="M163.237 215.25C170.653 215.749 177.976 216.07 185.382 216.999C225.325 222.01 265.408 235.972 297.319 260.993C303.268 265.657 309.162 271.4 314.556 276.688C311.316 280.767 309.478 282.995 305.771 286.73C302.501 289.872 299.065 292.732 295.539 295.576C293.565 292.985 289.532 288.852 287.18 286.523C262.032 261.624 228.362 247.575 193.531 243.246C183.842 242.042 174.207 241.99 164.504 242.011C162.95 232.632 163.245 224.732 163.237 215.25Z"/>
<path fill="black" d="M165.191 245.788C170.974 245.71 176.445 245.733 182.222 246.066C224.382 248.493 264.487 265.035 292.419 297.569C290.093 298.906 287.751 300.215 285.393 301.495C280.011 304.39 274.314 306.655 268.413 308.245C265.492 304.507 257.647 298.115 253.837 295.272C234.905 281.05 212.142 272.834 188.49 271.688C184.686 271.521 179.603 271.3 175.894 271.843C175.338 270.674 174.567 269.335 173.917 268.19C169.861 261.043 167.431 253.659 165.191 245.788Z"/>
<path fill="black" d="M241.803 147.112C242.714 147.477 249.164 151.907 250.412 152.748C257.585 157.627 264.79 162.458 272.028 167.241C272.03 191.29 272.308 215.909 271.954 239.903C270.876 239.511 269.616 238.746 268.565 238.233C259.863 233.988 250.969 229.728 241.825 226.529C241.67 217.64 241.802 208.366 241.801 199.453L241.803 147.112Z"/>
<path fill="black" d="M178.453 275.295C194.435 274.52 214.321 278.523 228.934 284.934C240.523 290.019 251.177 297.012 260.452 305.622C261.313 306.429 263.472 308.171 263.804 309.027L263.542 309.438L262.429 309.625C252.084 311.312 240.375 311.495 230.102 309.365C210.588 305.321 189.24 292.393 178.453 275.295Z"/>
<path fill="black" d="M264.736 339.029C267.319 338.882 270.18 338.87 272.346 340.4C280.679 346.287 279.292 360.501 268.754 362.955C254.787 364.902 251.024 346.551 261.413 340.139C262.229 339.636 263.759 339.277 264.736 339.029Z"/>
<path fill="black" d="M200.296 354.549C202.618 354.569 205.057 354.417 207.36 354.588C212.469 354.969 215.308 358.066 211.855 362.629C209.085 364.395 203.716 363.855 200.313 363.823L200.296 354.549Z"/>
<path fill="black" d="M200.307 338.437C205.054 338.369 216.189 337.603 211.081 345.915C208.014 347.784 203.931 347.246 200.285 347.189C200.364 344.373 200.305 341.274 200.307 338.437Z"/>
<path fill="black" d="M348.291 341.91C348.91 342.49 352.893 354.888 353.526 356.781L349.062 356.775L343.237 356.755C344.881 351.793 346.566 346.844 348.291 341.91Z"/>
</mask>
</defs>
<g mask="url(#holes)">
<path fill="#0E5184" d="M238.32 93.1398C241.348 92.819 247.342 92.9761 250.537 92.9742L273.638 92.967L297.463 92.97C301.225 92.9714 307.59 92.7638 311.108 93.3501C311.899 95.3623 311.507 116.742 311.502 120.418L307.848 120.429C307.491 113.238 307.762 103.844 307.76 96.4884L241.788 96.4987C241.909 111.672 241.469 127.545 241.873 142.632C244.42 144.02 247.518 146.366 250.055 147.954C257.722 152.752 266.044 159.162 273.81 163.538C276.443 164.823 279.107 166.044 281.799 167.2C282.355 166.638 282.191 158.912 282.394 157.369C284.08 144.567 289.693 131.415 301.795 125.338C303.234 124.616 304.423 124.165 306.002 124.675C307.375 123.858 308.745 123.063 310.07 122.168C311.26 122.972 312.474 123.741 313.709 124.473C315.269 124.107 316.136 124.419 317.56 125.087C340.221 135.727 342.941 170.507 331.15 189.946C327.706 195.623 319.5 204.305 312.251 203.067L311.815 203.423C312.125 205.662 312.018 209.939 312.018 212.37L311.994 229.031C316.702 229.008 330.143 228.703 333.927 229.361C334.005 230.794 333.993 231.931 333.939 233.38C333.13 254.999 322.548 276.337 306.841 291.031C294.673 302.414 277.235 311.324 260.733 313.824C255.298 314.647 247.638 314.653 242.086 314.402C219.176 313.385 197.637 303.203 182.309 286.145C170.561 273.295 162.946 257.211 160.453 239.98C159.438 232.439 159.458 219.403 159.825 211.665C163.639 211.175 174.485 212.121 178.386 212.56C185.772 213.39 193.64 214.244 200.926 215.547C213.814 217.851 225.632 221.29 238.074 225.257C238.164 213.065 238.185 200.873 238.137 188.682L238.104 144.339C236.417 143.478 232.632 140.812 230.926 139.668L217.543 130.745C212.636 134.416 204.741 139.39 199.491 142.916L163.243 167.244L163.24 197.477L206.612 197.511L220.078 197.498C222.696 197.491 227.052 196.465 228.107 199.554C227.989 200.028 227.883 200.589 227.381 200.716C223.615 201.664 216.073 201.246 212.462 201.243L189.182 201.253L172.71 201.253C168.845 201.251 163.738 201.489 160.08 200.72C159.259 198.034 159.649 169.319 159.776 165.016C162.938 162.526 168.121 159.271 171.57 156.956L193.101 142.509L208.596 132.081C210.56 130.76 215.917 126.967 217.803 126.282C224.135 130.145 231.823 135.713 238.074 140.019C238.142 129.988 238.158 119.957 238.12 109.925C238.119 104.822 237.958 98.1283 238.32 93.1398Z"/>
<path fill="#026832" d="M310.07 122.168C311.26 122.972 312.474 123.741 313.709 124.473C315.269 124.107 316.136 124.419 317.56 125.087C340.221 135.727 342.941 170.507 331.15 189.946C327.706 195.623 319.5 204.305 312.251 203.067L311.815 203.423C310.139 204.066 309.641 204.032 307.904 203.537L307.294 202.957C299.285 196.965 292.957 190.692 289.124 181.187C288.081 178.6 287.603 176.292 286.801 173.666C285.441 173.005 284.458 172.608 283.056 172.07C280.976 170.963 277.88 169.629 275.673 168.609C273.566 167.154 271.52 166.145 273.81 163.538C276.443 164.823 279.107 166.044 281.799 167.2C282.355 166.638 282.191 158.912 282.394 157.369C284.08 144.567 289.693 131.415 301.795 125.338C303.234 124.616 304.423 124.165 306.002 124.675C307.375 123.858 308.745 123.063 310.07 122.168Z"/>
<path fill="#BAFD44" d="M313.709 124.473C315.269 124.107 316.136 124.419 317.56 125.087C340.221 135.727 342.941 170.507 331.15 189.946C327.706 195.623 319.5 204.305 312.251 203.067C317.554 199.099 319.95 197.534 324.204 192.068C331.933 182.235 335.385 169.708 333.784 157.303C331.907 142.816 325.008 133.163 313.709 124.473Z"/>
<path fill="#BAFD44" d="M281.799 167.2C282.355 166.638 282.191 158.912 282.394 157.369C284.08 144.567 289.693 131.415 301.795 125.338C303.234 124.616 304.423 124.165 306.002 124.675C303.67 126.585 301.084 128.596 298.904 130.649C289.208 139.785 284.217 155.979 285.998 169.14C285.118 168.75 282.476 167.641 281.799 167.2Z"/>
<path fill="#BAFD44" d="M290.343 154.309C296.2 156.921 302.033 160.173 307.838 162.667C307.847 164.989 308.313 178.465 307.405 179.548C301.901 176.758 295.535 173.802 289.895 171.26C289.313 165.421 289.234 160.084 290.343 154.309Z"/>
<path fill="#BAFD44" d="M329.479 167.236L329.668 167.387C329.991 168.422 329.399 171.302 329.156 172.41C326.882 182.775 320.592 192.463 311.72 198.32C311.53 196.883 311.696 193.686 311.671 192.115C311.588 186.897 311.934 181.129 311.568 175.974C317.503 173.265 323.571 170.098 329.479 167.236Z"/>
<path fill="#BAFD44" d="M326.404 147.257L326.894 147.363C329.129 150.429 330.199 159.09 330.335 162.83C325.72 164.707 318.499 168.44 313.838 170.676L311.665 171.701C311.637 166.17 311.776 160.305 311.524 154.813C315.635 152.456 322.022 149.493 326.404 147.257Z"/>
<path fill="#BAFD44" d="M307.673 128.207C308.026 128.967 307.816 155.605 307.797 158.475L297.169 153.337C295.251 152.409 293.254 151.379 291.253 150.676C294.487 141.041 299.791 134.54 307.673 128.207Z"/>
<path fill="#BAFD44" d="M311.64 128.099C318.086 132.198 321.525 137.631 325.693 143.698C324.222 144.407 322.671 145.082 321.177 145.756L311.691 150.006C311.798 143.276 311.877 134.759 311.64 128.099Z"/>
<path fill="#BAFD44" d="M291.193 176.05L294.39 177.52C298.876 179.66 303.35 181.827 307.811 184.019C307.817 188.103 307.637 194.648 307.904 198.525C301.386 193.405 295.587 187.162 292.56 179.298C292.173 178.265 291.632 177.081 291.193 176.05Z"/>
<path fill="#BAFD44" d="M283.056 172.07C284.458 172.608 285.441 173.005 286.801 173.666C287.603 176.292 288.081 178.6 289.124 181.187C292.957 190.692 299.285 196.965 307.294 202.957C301.009 204.916 291.003 194.098 288.47 189.149C286.804 185.893 282.138 175.539 283.056 172.07Z"/>
<path fill="#494349" d="M311.815 203.423C312.125 205.662 312.018 209.939 312.018 212.37L311.994 229.031C310.945 229.22 309.085 229.188 308.038 228.992C308.206 220.911 307.447 211.135 307.904 203.537C309.641 204.032 310.139 204.066 311.815 203.423Z"/>
<path fill="#0E5184" d="M264.311 329.745C276.085 328.475 286.657 336.994 287.921 348.768C289.184 360.542 280.66 371.11 268.885 372.367C257.119 373.623 246.561 365.107 245.298 353.342C244.036 341.576 252.547 331.014 264.311 329.745Z"/>
<path fill="#0E5184" d="M190.23 330.268C197 330.258 208.636 329.575 214.921 331.229C224.161 333.661 225.848 346.15 215.597 350.583C222.107 352.791 224.568 357.787 222.884 364.317C219.668 373.34 208.855 371.914 201.283 371.999C197.61 372.041 193.915 371.997 190.24 371.994L190.23 330.268Z"/>
<path fill="#026832" d="M342.51 330.238C346.325 330.343 350.473 330.26 354.313 330.256C358.874 343.808 364.475 358.439 369.382 371.937C365.758 371.998 362.133 372.008 358.508 371.968C357.943 369.934 357.187 366.638 356.017 364.907C355.769 364.54 355.457 364.679 354.806 364.654C350.13 364.666 345.115 364.765 340.469 364.574C339.948 366.742 338.837 369.799 338.116 371.984C334.534 371.993 330.953 371.985 327.372 371.957C328 370.609 328.59 368.91 329.088 367.495C333.454 355.068 338.318 342.718 342.51 330.238Z"/>
<path fill="#0E5184" d="M148.249 330.28L158.439 330.292C158.289 339.174 158.135 348.984 158.741 357.843C159.146 363.758 169.125 364.669 171.768 360.187C173.529 357.2 173.079 350.52 173.076 346.987L173.047 330.294L183.209 330.294L183.201 339.438C183.191 342.712 183.198 345.987 183.222 349.262C183.246 355.646 183.586 362.032 178.941 367.062C172.644 373.881 159.49 374.284 152.894 367.715C151.04 365.864 149.711 363.553 149.042 361.02C147.943 356.915 148.242 350.333 148.246 345.873L148.249 330.28Z"/>
<path fill="#026832" d="M305.823 329.845C309.518 329.36 314.883 330.185 317.966 332.384C321.776 335.102 322.756 337.719 323.523 341.995C320.314 342.322 315.917 342.193 312.583 342.178C312.203 340.73 311.893 339.749 310.634 338.834C308.639 337.382 305.241 337.572 303.78 339.699C303.307 340.38 303.137 341.227 303.311 342.038C303.494 342.925 303.977 343.723 304.678 344.296C309.551 348.335 323.216 348.48 323.944 357.834C324.665 367.104 318.301 371.594 309.812 372.403C300.858 372.829 293.709 369.109 292.424 359.553C295.909 359.449 299.719 359.523 303.228 359.523C305.956 371.089 324.294 358.859 304.039 354.183C288.287 350.546 288.296 331.898 305.823 329.845Z"/>
<path fill="#009AA4" d="M187.662 160.847C195.736 159.824 206.182 162.373 213.686 165.3C212.774 173.549 209.61 179.837 203.852 185.739C201.81 187.572 200.348 188.446 197.968 189.802C194.851 188.568 192.037 186.673 189.721 184.248C183.699 178.042 181.231 171.067 181.305 162.559C183.727 161.295 185.006 161.147 187.662 160.847Z"/>
<path fill="white" d="M195.879 164.621L199.181 164.664C199.197 166.516 199.175 168.369 199.113 170.22L204.773 170.28L204.765 175.998L199.228 175.967C199.182 177.751 199.496 179.359 199.098 181.083C198.548 181.729 198.908 181.481 197.813 181.588L193.565 181.604L193.512 175.932C191.803 176.023 189.717 175.987 187.977 176L187.906 170.274L193.573 170.231C193.611 168.161 193.061 166.727 193.787 165.019C194.628 164.448 194.652 164.651 195.879 164.621Z"/>
<path fill="#0E5184" d="M116.003 330.27C124.83 330.433 134.158 330.282 143.028 330.286C143.075 332.954 143.017 335.785 143.002 338.467C137.347 338.397 131.691 338.396 126.035 338.464L126.053 347.243L138.791 347.263L138.752 355.063L126.023 355.116C126.071 360.735 126.074 366.355 126.033 371.975L115.999 371.984L116.003 330.27Z"/>
<path fill="#0E5184" d="M229.482 330.261L239.543 330.286L239.559 371.963L229.451 371.98L229.482 330.261Z"/>
<path fill="#026832" d="M374.026 330.265L384.026 330.291L384.04 371.961C380.69 371.988 377.34 371.996 373.99 371.984L374.026 330.265Z"/>
</g>
</svg>